<svg xmlns="http://www.w3.org/2000/svg" version="1.1" viewBox="0 0 600 620">
<path d="m231.26 132.2q-2.66 0.65-3.59-0.15-13.21-9.08-27.66-15.55a0.33 0.33 0 0 0-0.47 0.29l-0.49 17.27a0.53 0.53 0 0 0 0.5 0.55q10.4 0.65 20.71-1.15 0.52 0.07-1.03 1.84-0.31 0.35-0.77 0.31-0.89-0.08-0.88 0.71l-0.49 0.14q-0.56 0.17-0.43 0.74 0.06 0.27 0.26 0.56-0.42 0.9-1.48 1.48c-0.93-1.07-2.01-1.99-3.5-2.09q-6.9-0.49-13.96-0.46c-4.39 0.02-8.51 1.75-12.69 2.88q-0.56 0.14-0.57 0.72l-0.58 36.36a4.5 4.48 9.4 0 0 3.12 4.34l17.04 5.45q0.57 0.18 1.12-0.06l22.75-9.76q-0.49-2.19 1.82-2.61a0.32 0.32 0 0 1 0.37 0.35q-0.12 0.87 0.83 1.33c0.51 5.23 0.85 10.54 2.14 15.54q3.46 13.41 6.99 27.14a4.48 4.47 72.5 0 0 5.91 3.08l20.64-7.74a2.61 2.6-11 0 0 1.69-2.49c-0.3-13.83-6.51-28.94-13.12-41.35q0.24-1.46 1.09-2.09c7.07 13.1 12.68 27.4 14.02 42.1q0.25 2.72-1.31 4.42-0.33 0.37-0.17 0.84 9.8 27.89 11.17 58.22 0.03 0.85 0.88 0.89 0.36 0.02 0.72 0.37 0.51 0.5 0.73 1.18l3.9 12.23 1.89 9.23 0.63 6.01-0.45 5.73q-0.26 4.77-3.43 7.09l-13.4 0.24q-6.36-1.61-12.09-8.05 0.45-4.61 0.5-9.78 0.03-2.76 0.94-4.45 1.44-2.65 2.73-5.26c-0.39-9.92-1.36-19.55-7.76-27.5q-7.26-8.99-12.13-19.06c-1.52-3.14-4.1-9.58-3-12.66q0.96-2.69 1.87-5.61 0.23-0.74-0.51-0.97l-1.88-0.57a2.14 2.13-88.8 0 1-1.43-1.5l-7.42-28.97q-0.31-1.22-0.84-0.07c-2.44 5.28-5.58 11.04-6.35 16.77-1.16 8.58-2.98 17.65-1.91 26.16q1.22 9.75 2.13 19.38 0.34 3.57 1.84 7.89 2.98 8.55 4.84 17.69 4.53 16.95 4.07 34.86-0.05 1.74 0.12 3.25 0.18 1.67 0.37 3.23 2.68 14.57 2.71 29.15 0.01 4.53-1 8-4.86 16.6-11.1 27.16c-4.9 8.28-10.34 18.08-8.66 27.98q1.27 7.54 2.22 15.29c0.48 3.9 2.09 7.5 2.66 11.55q2.49 17.89-1.71 34.97-5.09 20.65-10.35 40.38c-0.96 3.6-2.63 9.84-1.51 13.5q1.17 3.86 0.9 7.94-0.12 1.88-1.94 1.77a0.93 0.92-77.2 0 0-0.91 0.58q-0.55 1.43 0.49 2.52 5.8 6.04 11.66 12.28 0.41 0.43 0.41 1.03l0.01 5.77a0.54 0.54 0 0 1-0.53 0.54q-12.69 0.06-25.09 0-2.72-0.01-4.94-1.99-0.4-0.36-0.39-0.89 0.05-15.58-0.04-29.4-0.02-2.56 0.93-5.14 3.29-8.95 4.39-22.5 0.15-1.8-0.67-3.8-2.29-5.55-4.18-11.16c-5.01-14.93-3.39-33.71 0.7-48.63q0.72-2.62 0.51-5.25-0.94-11.81-1.46-23.31c-0.11-2.37-2.09-3.29-2.36-5.57q-0.31-2.73-0.5-5.64-1.82-28.92-2.61-58.34a0.04 0.03 52 0 0-0.07-0.01q-0.65 2.47-0.74 5.32-0.78 26.09-2.57 55.35-0.26 4.3-2.32 7.24-0.34 0.49-0.37 1.09-0.67 12.14-1.53 24.11-0.17 2.46 0.57 5.25c3.94 14.77 5.41 31.86 1.41 46.1q-1.06 3.77-5.34 14.57-0.34 0.86-0.29 1.74 0.69 12.7 4.45 23.66 0.92 2.69 0.9 5.5-0.11 14.55-0.01 28.51 0 0.96-0.81 1.49-2.66 1.7-4.97 1.7-12.25 0.01-24.64-0.02a0.6 0.59-0 0 1-0.6-0.59l-0.01-5.87a0.97 0.96 67.1 0 1 0.27-0.67q6.06-6.37 12-12.67c0.65-0.69 0.73-1.87 0.12-2.61q-0.33-0.4-0.85-0.34-1.55 0.18-1.72-1.43-0.38-3.73 0.5-6.81c1.23-4.3-0.01-9.5-1.1-13.67q-7.85-30.04-11.37-45.38-3.33-14.52-0.89-31.48c0.61-4.22 2.3-7.97 2.9-12.14q1.24-8.78 2.28-15.96c1.22-8.46-3.62-17.14-7.74-24.39q-8.7-15.33-13.06-32.51-0.6-2.37-0.07-10.95 0.77-12.48 2.54-22.87 0.71-4.16 0.58-8.68c-0.52-16.77 3.53-34.69 9.06-50.5q1.31-3.76 1.65-7.36 0.91-9.83 2.17-19.89 0.65-5.13 0.1-10.01-0.93-8.27-2.01-16.12c-0.82-6-4.04-11.38-6.38-16.93q-0.45-1.07-0.74 0.05-3.99 15.44-7.47 28.75-0.64 2.49-3.25 2.45a0.68 0.68 0 0 0-0.65 0.91q1.1 3.02 1.91 5.73c1.14 3.84-1.66 10.3-3.83 14.52q-4.52 8.79-11.45 17.43c-5.61 7.01-7.25 16.13-7.49 25.49q-0.05 2.28 1.1 4.28c1.26 2.17 2.99 4.73 3.05 7.26q0.11 4.69-0.01 9.51a1.57 1.56 72 0 1-0.62 1.23l-8.15 6.2a3.16 3.16 0 0 1-1.92 0.65l-14.28 0.03a2.13 2.12-16.9 0 1-1.76-0.93q-2.3-3.34-2.58-7.65c-0.67-10.66 2.34-21 5.94-30.93q0.64-1.77 2.54-2.9a0.24 0.23 77.6 0 0 0.11-0.18c1-19.62 4.33-39.91 11.3-58.35a0.93 0.92 33.4 0 0-0.21-0.99l-0.93-0.93q-0.4-0.41-0.39-0.97c0.18-14.83 6.49-30.77 13.51-43.65q0.25 0.54 1.72 0.82-7.89 15-11.79 30.77-1.38 5.57-1.54 10.73a2.83 2.82 11.1 0 0 1.84 2.73q10.4 3.88 20.35 7.66c1.64 0.63 5.3-0.06 5.82-2.04q3.82-14.55 7.38-28.63c1.28-5.06 1.54-10.47 2.21-15.77q1.1-0.83 1.98-0.15 0.4 0.31 0.49 0.79 0.13 0.65 0.5 1.16l22.79 9.63q0.47 0.2 0.95 0.04l17.02-5.45a4.56 4.55 80.7 0 0 3.16-4.41l-0.6-36.11a0.93 0.93 0 0 0-0.67-0.88q-3.08-0.88-6.16-1.87-2.72-0.87-6.43-0.98-7.77-0.22-15.61 0.69l-2.02-0.37q-0.11-0.02-0.05-0.12 0.08-0.13 0.06-0.32-0.03-0.4-0.42-0.44-0.43-0.05-0.95 0.16l-4.72-0.89q-2.7-1.81-7.23-0.9-0.18 0.03-0.15-0.14 0.02-0.16-0.07-0.25-0.28-0.27-0.71-0.21-3.39 0.46-4.45-1.33 0.87 0 1.68-0.07 0.78-0.07 1.4-0.5 15.19-10.69 31-17.58a0.88 0.88 0 0 0 0.52-0.83q-0.27-6.97-0.84-13.47c-0.18-2.11-2.9-3.21-3.16-5.58q-0.45-4.09-1.04-8.29-0.08-0.57-0.64-0.73-2.59-0.76-3.49-3.07c-1.27-3.22-5.11-13.51 0.94-14.23a0.5 0.5 0 0 0 0.44-0.56c-1.5-12.05 3.4-26.08 16.85-28.31q8.83-1.46 16.76 0.35c10.55 2.4 15.62 13.74 15.34 23.72q-0.06 2.03-0.2 4.14-0.04 0.66 0.61 0.78c5 0.91 2.9 7.57 1.85 10.91-0.81 2.57-1.29 5.71-4.58 6.13q-0.57 0.08-0.65 0.65-0.52 3.86-0.98 8.15c-0.23 2.17-1.7 3.3-2.97 4.86a1.67 1.67 0 0 0-0.37 0.96l-0.74 13.45a0.96 0.95-77.1 0 0 0.58 0.94q12.34 5.3 26.24 14.4 3.65 2.38 4.8 3.38zm-27.41-48.57c2.02 0.18 3.08-0.68 3.64-2.57 0.86-2.94 2.45-6.92 1.67-9.9q-0.16-0.64-0.8-0.79-0.98-0.23-1.58 0.79-0.36 0.6-1.04 0.44-0.31-0.07-0.48-0.36-0.19-0.32-0.07-0.97 1.29-6.93-0.03-13.3c-1.47-7.08-6.01-13.89-13.44-15.44q-9.83-2.06-18.52 0.38-5.69 1.6-8.96 7.18-5.72 9.74-3.03 21.49a0.85 0.85 0 0 1-1.16 0.97q-0.73-0.32-1.21-0.88a0.78 0.78 0 0 0-0.89-0.2q-1.14 0.5-1.08 1.76 0.2 4.91 2.52 10.06 0.69 1.52 2.94 1.3a0.78 0.77-6.6 0 1 0.84 0.66l1.33 10.01q0.08 0.57 0.45 1l10.08 11.94q0.48 0.56 1.21 0.56h13.96q0.52 0 0.85-0.4 4.4-5.25 9.27-10.8 1.38-1.57 1.6-3.29 0.6-4.52 1.1-8.96a0.78 0.77-84.2 0 1 0.83-0.68zm-11.86 26.32c-0.79 8.67-2 17.75-4.89 25.68q-0.29 0.81 0.47 0.4c3.08-1.66 4.4-3.1 8.25-2.72a0.78 0.77-85.8 0 0 0.85-0.74l1.58-29.76q0.05-0.95-0.56-0.22l-5.26 6.29q-0.39 0.47-0.44 1.07zm-13.98 22.43q-2.92-10.66-3.75-22.44-0.03-0.52-0.37-0.92l-5.21-6.25q-0.74-0.88-0.68 0.27l1.52 29.69q0.04 0.82 0.85 0.66c3.6-0.7 5.53 1.12 8.42 2.69q0.9 0.48 0.47-0.44c-0.49-1.06-0.94-2.14-1.25-3.26zm-1.7-21.88c0.72 8.81 2.06 19.2 6.07 27.31a0.75 0.74 47.2 0 0 1.31 0.05q1.76-2.93 2.67-6.38 2.73-10.33 3.55-21.31a0.38 0.38 0 0 0-0.38-0.42l-12.55 0.02a0.67 0.67 0 0 0-0.67 0.73zm-13.63 7.65q-11.96 5.61-23.54 13.51-1.07 0.73 0.22 0.87 3.92 0.44 8.63 1.22c6.39 1.08 12.62 1.13 18.87 0.89a0.38 0.38 0 0 0 0.37-0.39l-0.58-17.27a0.47 0.47 0 0 0-0.67-0.41q-1.62 0.79-3.3 1.58zm-6.65 81.9q1.22-5.5 2.58-11.23 0.13-0.55-0.39-0.78l-18.55-7.98a0.36 0.35 6.7 0 0-0.49 0.38q4.09 23.5 6.2 40.08 0.56 4.4 0.85 9.15a1.17 1.13-74.7 0 0 0.47 0.85l9.7 7.04q1.19 0.87 0.72-0.53-2.53-7.5 2.01-12.49 0.42-0.46 0.07-0.98-3.21-4.66-1.08-10.08 0.2-0.51-0.24-0.83c-2.54-1.86-2.47-9.82-1.85-12.6zm51.03 24.48c3.33 3.79 3.4 8.49 1.79 12.94q-0.44 1.23 0.61 0.46l9.81-7.18q0.57-0.42 0.64-1.13 2.46-24.23 7.23-49.05a0.43 0.42-6.1 0 0-0.59-0.47l-18.8 8a0.41 0.41 0 0 0-0.24 0.46q1.07 4.73 2.33 9.82c1.01 4.07 0.86 8.47-0.17 12.38q-0.31 1.17-1.35 1.8-0.52 0.31-0.31 0.89 2.08 5.43-1.02 10.15-0.32 0.49 0.07 0.93zm-23.893-40.981a1.59 1.26 88.3 0 0 1.2122-1.6267 1.59 1.26 88.3 0 0-1.3066-1.5519 1.59 1.26 88.3 0 0-1.2122 1.6267 1.59 1.26 88.3 0 0 1.3066 1.5519zm-44.627 10.411q1.19 2.38 0.72-0.24l-2.21-12.2q-0.17-0.95-0.46-0.03-1.23 3.97-0.5 6.42 0.83 2.82 2.45 6.05zm90.63-12.62-2.39 12.92a0.21 0.21 0 0 0 0.17 0.25l0.06 0.01a6.65 1.79-79.5 0 0 2.97-6.21l0.05-0.26a6.65 1.79-79.5 0 0-0.55-6.86l-0.06-0.02a0.21 0.21 0 0 0-0.25 0.17zm-68.41 8.11q-3.71 9.75-2.39 20.24a1.17 1.17 0 0 0 1.7 0.89l21.55-11.19q0.53-0.27 0.54-0.87 0.04-5.13 0.08-10.94c0.01-1.83-1.03-2.84-1.94-4.27q-0.37-0.58-1.02-0.37l-17.51 5.55a1.62 1.58-87.8 0 0-1.01 0.96zm23.79 9.92 21.55 11.21a1.25 1.25 0 0 0 1.82-0.95q1.17-9.1-1.67-17.88c-0.29-0.9-0.26-2.53-1.63-3.06q-4.81-1.82-17.81-5.76-0.46-0.15-0.77 0.23c-1.14 1.39-2.02 2.81-1.99 4.72q0.09 5.33 0.07 10.78a0.81 0.8 14.3 0 0 0.43 0.71zm-0.97 4.18 1.25-1.03q0.47-0.39 0-0.78-1.59-1.34-3.27-0.15a0.65 0.65 0 0 0-0.12 0.95q0.6 0.69 1.38 1.1 0.41 0.21 0.76-0.09zm-8.18 17.43q3.39-0.32 5.82-1.2a1.44 1.44 0 0 0 0.95-1.34l0.06-11.88q0-0.7-0.52-1.17l-2.18-1.94q-0.52-0.47-1.14-0.15-7.1 3.72-13.24 6.78c-5.07 2.54-6.57 5.26-5.38 10.68q0.39 1.8 2.22 1.59 6.43-0.73 13.41-1.37zm28.59-9.28c-5.49-2.84-10.86-5.76-16.31-8.51q-0.47-0.24-0.87 0.11l-2.25 2.01q-0.43 0.38-0.43 0.95l-0.04 11.75a2.42 2.41-86.9 0 0 2.16 2.42l18.44 1.99a1.51 1.5-78.8 0 0 1.61-1.09c0.79-2.82 0.76-8.04-2.31-9.63zm-83.26 12.1-21.07-7.96q-0.64-0.25-0.88 0.4-9.3 26.04-10.98 57.35-0.14 2.66 0.97 5.15c1.79 4 6.43 10.48 11.32 8.64a0.94 0.92 80.4 0 0 0.6-0.86c0.13-9.41 1.98-19.09 8.06-26.55 6.14-7.53 12.01-16.71 14.49-25.9 0.93-3.44-0.58-6.41-1.73-9.49q-0.21-0.57-0.78-0.78zm145.36 63.64c4.96 1.82 9.72-4.97 11.42-8.91q1.13-2.61 0.93-5.46c-1.47-20.62-4.48-38.99-11.14-57.04a0.45 0.45 0 0 0-0.57-0.27l-21.3 8.04q-0.57 0.22-0.78 0.79c-1.14 3.08-2.72 6.25-1.72 9.59 2.89 9.66 8.53 18.07 14.77 26.09 5.88 7.56 7.78 17.01 7.81 26.35q0.01 0.61 0.58 0.82zm-81.95-65.45a1.02 1.02 0 0 0-1.02-1.02 1.02 1.02 0 0 0-1.02 1.02 1.02 1.02 0 0 0 1.02 1.02 1.02 1.02 0 0 0 1.02-1.02zm-24.6 6.3c-0.27 3.1 0.02 10.69 2.59 12.99q0.4 0.36 0.93 0.39l16.12 0.91a2.78 2.78 0 0 0 2.93-2.76l0.1-13.45a3.85 3.85 0 0 0-4.35-3.84l-15.88 2.1a1.58 1.51 18 0 0-0.87 0.42q-1.39 1.34-1.57 3.24zm45.3 12.4c1.55-3.51 3.42-12.06 0.65-15.22q-0.72-0.83-2.23-1.03-7.3-0.97-15.05-1.91a3.71 3.7-86.6 0 0-4.14 3.69l0.03 13.1q0 3.46 3.46 3.26l15.88-0.92a1.64 1.63 10 0 0 1.4-0.97zm-45.15 5.47q0.15-1.3 0.47-2.56a1.04 1.03-65 0 0-0.39-1.09l-13.51-9.88a0.18 0.18 0 0 0-0.28 0.13l-2.69 24.7q-0.09 0.84 0.41 1.53l20.95 28.39q1.23 1.66 0.62-0.32c-4.2-13.57-7.2-26.85-5.58-40.9zm46.27-2.9c2.77 13.79-0.27 30.67-5.26 43.78q-1.2 3.15 0.8 0.44l21.11-28.58a1.64 1.61 60.6 0 0 0.31-1.15l-2.64-24.78a0.34 0.33-21.1 0 0-0.53-0.23l-13.53 9.84q-0.35 0.25-0.26 0.68zm-21.54 0.6831a1.31 0.84-0.3 0 0-1.3144-0.8331 1.31 0.84-0.3 0 0-1.3056 0.8469 1.31 0.84-0.3 0 0 1.3144 0.8331 1.31 0.84-0.3 0 0 1.3056-0.8469zm-20.49 32.167q3.17 10.93 7.55 20.55 2.91 4.75 7.21 8.19 1.45 1.15 3.04 1.75a0.29 0.29 0 0 0 0.39-0.27l0.15-10.37-0.07-7.57-0.12-40.82a1.23 1.22 11.8 0 0-0.74-1.12c-2.24-0.98-4.39-1.99-6.91-2.14q-5.74-0.34-11.03-0.62a1.22 1.21-83 0 0-1.26 0.99q-1.59 8.35-0.45 17.19 0.95 7.36 2.24 14.24zm20.17 12.7-0.25 17.6q-0.01 0.71 0.6 0.34 4.5-2.69 7.8-6.42 2.74-3.55 3.34-5.31 1.13-3.26 2.78-7.51 6.5-16.66 6.6-32.93 0.03-5.32-0.96-10.25a0.83 0.82 82.7 0 0-0.85-0.67q-6.34 0.33-11.68 0.71-3 0.22-6.81 2.21-0.44 0.23-0.44 0.73l-0.13 41.5zm-43.5 18.72q3.62-2.58 4.62-6.98l1.35-5.44 1.73-6.85 3.63-14q0.14-0.53-0.19-0.98l-8.94-12.13a0.33 0.33 0 0 0-0.58 0.09c-5.94 17.03-10.04 35.59-9.53 52.85q0.02 0.72 0.55 0.23l7.36-6.79zm77.28-18.98q2.14 7.31 4.02 14.78 0.4 1.59 1.99 2.66l8.14 7.66q0.38 0.02 0.7 0.48 0.73 1.02 0.75-0.24c0.08-4.64 0.09-9.16-0.46-13.66q-0.91-7.39-2.15-14.7l-6.87-24.29a0.33 0.33 0 0 0-0.59-0.11l-8.92 12.06a1.75 1.74-34.3 0 0-0.28 1.47l3.67 13.89zm-113.23 9.79c-0.12-2.47-2.47-5.66-3.52-7.99a1.07 1.07 0 0 0-1.1-0.62c-7.31 0.87-11.26-6.3-13.9-12.22q-0.57-1.29-1.07 0.02c-3.79 9.95-8.46 25.07-4.37 35.47a2 2 0 0 0 1.86 1.27l13.17 0.01a1.63 1.61 26.4 0 0 0.97-0.32l7.53-5.65a1.22 1.2-17.9 0 0 0.48-0.92q0.17-4.74-0.05-9.05zm162.72-8.65q-2.96-0.08-5.2 6.46-0.47-0.24-0.52 1.11-0.22 5.1-0.11 10.22 0.01 0.52 0.44 0.81l9.07 6.36 8.39-0.29 4.83-0.23q0.51-0.03 0.77-0.46 1.33-2.17 1.71-4.71l0.49-6.17-0.88-7.72-1.75-7.47-3.31-9.78q-0.63-1.86-1.31-0.02-1.03 2.77-2.87 5.72-3.64 5.86-9.75 6.17zm-117.01-1.59-1.84 6.68-1.07 6.24q-0.15 0.21-0.32 0.3-0.27 0.14-0.16 0.42 0.05 0.13 0.12 0.26 0.15 0.27 0.11 0.58l-0.85 6.42-0.62 7.99-0.14 6.54q-0.26 16.65 0.01 25.71 0.34 11.64 3.52 25.94c2.27 10.19 6.94 19.85 14.29 27.64a0.43 0.42-60.4 0 0 0.72-0.2q4.25-18.23 6-36.69c0.91-9.56-0.08-18.39-1.49-27.49q-0.94-6.09-2.99-13.77-3.64-13.6-7.22-27.21l-2.21-8.36-2.86-10.53q-0.14-0.53-0.29-0.01l-2.71 9.54zm53.46 24.36-2.51 9.4c-3.02 10.03-4.96 21.96-5.55 32.99q-0.34 6.43 0.68 14.95 2.02 16.98 5.64 32.76 0.1 0.42 0.48 0.21 0.71-0.4 1.25-1.01 8.18-9.29 11.79-21.16c5.64-18.56 5.48-36.67 4.94-58.54q0.1-15.06-3.74-30.27l-3.47-13.21q-0.28-1.05-0.56 0l-8.95 33.88zm-39.6-0.88 3.38 10.87q2.77 12.27 4.17 24.71 1.05 9.31 0.51 16.65c-0.98 13.21-3.5 27.19-6.35 39.75a0.63 0.62-77.7 0 0 0.48 0.75l8.61 1.89a1.98 1.97 12.5 0 0 2.35-1.49q0.71-3.12 0.88-6.21 2.51-44.51 3.76-89.13 0.02-0.52-0.45-0.72-5-2.17-9.33-7.57l-7.94-9.71-7.93-11.18q-0.8-1.13-0.44 0.21l8.3 31.18zm39.47-22.44-7.38 9.33-4.51 5.08c-1.68 1.66-5.03 5.02-7.35 4.84q-0.51-0.04-0.49 0.47l0.56 14.62 4.11 80.75a2.13 2.12-7.7 0 0 2.58 1.96l8.81-1.96a0.48 0.47-13.6 0 0 0.36-0.58q-4.84-20.08-6.57-41.39-0.32-3.9-0.06-7.51 1.2-16.72 5.3-33.9l5.57-18.31q2.96-11.88 5.77-22.28 0.04-0.13-0.07-0.21-0.11-0.09-0.17-0.21-0.06-0.1-0.12-0.01l-6.34 9.31zm18.73 33.11q0.31 13.17 0.29 26.33-0.01 8.99-0.98 14.9c-2.48 15.06-7.28 30.38-17.59 40.78q-0.46 0.46 0.14 0.71l10.35 4.37q0.58 0.25 0.65-0.38c0.91-9.17 5.21-17.32 9.97-25.38 4.47-7.59 7.56-16.37 10.18-24.87q1.24-4 1.2-7.9-0.17-16.67-3.18-33.04-0.1-0.53-0.5-0.9l-8.97-8.45q-0.6-0.52-1.21-0.64-0.51-0.1-0.51 0.42l0.16 14.05zm-78.71 1.09 0.15-7.36 0.2-7.68a0.5 0.5 0 0 0-0.5-0.52q-0.64 0-1.08 0.49c-2.87 3.16-6.3 5.64-9.3 8.74q-0.33 0.35-0.42 0.83-2.88 16.28-3.28 33.37-0.04 2.08 0.44 3.95 4.56 17.75 12.81 31.58c3.83 6.41 7.98 14.83 8.07 22.39a0.35 0.35 0 0 0 0.49 0.32l10.99-4.6q0.31-0.14 0.07-0.38c-10.79-10.59-15.74-26.74-17.99-41.65q-1.07-7.1-0.9-19.71 0.12-9.96 0.25-19.77zm16.88 214.02c0.57 1.66 1.31 3.93-0.07 5.37q-6.02 6.29-11.21 11.68c-1.12 1.17-1.05 3.12-0.82 4.61q0.1 0.62 0.74 0.62l23.68-0.09q2.64-0.01 2.63-2.66-0.06-13.59-0.02-27.21 0.01-2.46-0.98-5.45-2.68-8.03-3.87-17.85-1.46-12.03-2.01-19.91-1.43-20.42 4.01-47.05c0.59-2.86 1.3-5.7 1.46-8.66q0.62-11.06 1.33-21.73a0.86 0.86 0 0 0-0.69-0.9l-9.57-2.07q-0.52-0.11-1.01 0.1l-13.05 5.43q-0.54 0.22-0.62 0.8l-2.02 14.27a0.24 0.24 0 0 0 0.37 0.24q2.01-1.36 4.48-1.82c6.33-1.21 8.17 4.25 8.31 9.17q0.68 24.76 0.04 50.41c-0.21 8.31 0.19 17.05 0.23 25.37 0.05 7.54-1.13 14.23-3.3 21.28-0.44 1.44-0.42 3.05-0.6 4.56q-0.07 0.58 0.48 0.75 0.52 0.16 1.06 0.1 0.76-0.09 1.02 0.64zm44.45-106.62c1.29-6.74 7.07-7.07 12.01-4.03a0.41 0.4-78.7 0 0 0.61-0.41l-1.94-13.57q-0.13-0.92-0.99-1.27l-12.26-5.11q-0.95-0.39-1.95-0.18l-9.2 1.95a0.71 0.7 82.6 0 0-0.56 0.74q0.63 9.54 1.16 19.04c0.41 7.32 2.24 14.44 3.47 21.6q3.08 17.99 2.2 35.82-0.36 7.27-2.01 20.65-1.38 11.13-3.95 18.52-0.95 2.73-0.94 5.33 0.06 14.79-0.04 26.99-0.02 2.73 2.71 2.74l23.65 0.1q0.8 0.01 0.78-0.79c-0.04-1.48 0.33-3.21-0.79-4.38q-5.92-6.17-11.38-11.86-1.06-1.1-0.46-2.68a2.9 2.82-37 0 0 0.18-1.15q-0.09-2.42 1.92-2.06a0.88 0.88 0 0 0 1.02-0.96c-0.71-6.43-3.31-12.02-3.7-18.39q-0.52-8.48-0.54-15.61-0.08-32.18 0.15-61.92 0.04-4.86 0.85-9.11zm-52.91-3.3c-8.6 3.03-8 26.22-7.47 33.39q0.47 6.37 3.02 16.72c3.53 14.32 7.43 28.6 10.78 42.4q0.06 0.24 0.26 0.43a0.23 0.22 24.4 0 0 0.38-0.14c0.51-6.07 0.9-11.95 0.81-18.04-0.34-22.56 0.52-45.25-0.25-67.58-0.13-3.82-3.05-8.75-7.53-7.18zm68.08 10.57c-0.61-3.47-2.1-8.37-5.4-10.18-2.99-1.65-6.34 0.05-7.54 3.04q-1.18 2.96-1.2 7.29-0.12 29.04-0.17 61.39-0.01 7.63 0.88 19.16 0.25 3.28 1.05 0.1 5.66-22.33 11.01-43.61 4.64-18.48 1.37-37.19zm-44.76 3.85q-0.1-0.46-0.45-0.74-0.21-0.16-0.27 0.1-5.43 22.81-4.13 46.03 0.2 3.6 0.77 7.15 0.25 1.62 0.82 0.08 1.78-4.88 3.53-10.03 1.69-4.97 2.37-13.45 0.95-11.96-2.64-29.14zm16.28 0.39q-0.53-2.32-1.05 0-4.3 19.42-1.67 36.18c0.87 5.56 3.28 11.15 5.24 16.49a0.27 0.27 0 0 0 0.45 0.09q0.22-0.22 0.25-0.51 2.89-25.46-3.22-52.25z" fill="#0e0f0d"/>
<path d="m187.1 135.63c2.89-7.93 4.1-17.01 4.89-25.68q0.05-0.6 0.44-1.07l5.26-6.29q0.61-0.73 0.56 0.22l-1.58 29.76a0.78 0.77-85.8 0 1-0.85 0.74c-3.85-0.38-5.17 1.06-8.25 2.72q-0.76 0.41-0.47-0.4z" fill="#fff"/>
<path d="m176.31 110.5a0.67 0.67 0 0 1 0.67-0.73l12.55-0.02a0.38 0.38 0 0 1 0.38 0.42q-0.82 10.98-3.55 21.31-0.91 3.45-2.67 6.38a0.75 0.74 47.2 0 1-1.31-0.05c-4.01-8.11-5.35-18.5-6.07-27.31z" fill="#fff"/>
<path d="m162.68 118.15q1.68-0.79 3.3-1.58a0.47 0.47 0 0 1 0.67 0.41l0.58 17.27a0.38 0.38 0 0 1-0.37 0.39c-6.25 0.24-12.48 0.19-18.87-0.89q-4.71-0.78-8.63-1.22-1.29-0.14-0.22-0.87 11.58-7.9 23.54-13.51z" fill="#fff"/>
<path d="m227.67 132.05-7.41 1.41q-10.31 1.8-20.71 1.15a0.53 0.53 0 0 1-0.5-0.55l0.49-17.27a0.33 0.33 0 0 1 0.47-0.29q14.45 6.47 27.66 15.55z" fill="#fff"/>
<path d="m227.67 132.05q0.93 0.8 3.59 0.15 2.45 0.51 4.94 0.84 7.61 1.01 12.77 5.78 4.58 4.23 6.84 11.43 2.69 8.54 0.72 17.53-0.85 0.63-1.09 2.09l-4.98 11.82q-0.64 1.52-1.94 0.5l-17.51-13.7q-0.45-0.36-0.4 0.21l0.58 6.99q-0.95-0.46-0.83-1.33a0.32 0.32 0 0 0-0.37-0.35q-2.31 0.42-1.82 2.61-0.26-4.25-0.54-8.08-0.29-3.96-1.54-7.91-1.42-4.44-2.8-8.9-1.62-5.2-7.85-12.49 1.06-0.58 1.48-1.48c5.49 5.67 9.1 14.38 10.96 22.17q0.99 4.12 3.41 5.87c5.86 4.19 11.07 9.19 17.11 13.23a0.59 0.58-61.5 0 0 0.86-0.26q2.35-5.44 4.63-10.66c2.76-6.32 1.46-15.08-1.32-21.15q-4.85-10.57-17.32-12.31c-0.98-0.14-2 0-2.93-0.23q-0.48-0.12-0.97-0.05l-13.77 1.95q-0.01-0.79 0.88-0.71 0.46 0.04 0.77-0.31 1.55-1.77 1.03-1.84l7.41-1.41z" fill="#2a0f0d"/>
<path d="m131.91 132.6q1.06 1.79 4.45 1.33 0.43-0.06 0.71 0.21 0.09 0.09 0.07 0.25-0.03 0.17 0.15 0.14 4.53-0.91 7.23 0.9-3.83-0.13-7.53-0.52-15.14-1.57-22.06 9.87-2.11 3.5-3.07 7.56-1.1 4.71-1.13 8.96-0.02 3 1.24 5.99 2.32 5.55 4.91 11.74a0.66 0.66 0 0 0 1.03 0.26q8.6-7.06 16.25-12.96c1.61-1.23 3.15-3.16 3.73-5.13q1.46-5.03 3.16-9.82 2.23-6.28 8.17-13.68 0.21-0.26 0.22-0.67 0.01-0.4-0.2-0.71 0.52-0.21 0.95-0.16 0.39 0.04 0.42 0.44 0.02 0.19-0.06 0.32-0.06 0.1 0.05 0.12l2.02 0.37q-6.9 6.83-9.93 15.36-0.68 1.89-2.6 8.08-1.24 4-1.51 7.86-0.28 3.97-0.41 8.04-0.37-0.51-0.5-1.16-0.09-0.48-0.49-0.79-0.88-0.68-1.98 0.15l0.52-6.25a0.28 0.28 0 0 0-0.45-0.25l-17.84 13.95a1 0.99-29.9 0 1-1.54-0.41l-4.96-12.49q-1.47-0.28-1.72-0.82 0.66-1.87 0.17-3.92-0.65-2.76-0.63-3.71 0.11-4.85 1.34-9.53 4.45-16.94 21.82-18.92z" fill="#2a0f0d"/>
<path d="m216.92 137.76q-0.2-0.29-0.26-0.56-0.13-0.57 0.43-0.74l0.49-0.14 13.77-1.95q0.49-0.07 0.97 0.05c0.93 0.23 1.95 0.09 2.93 0.23q12.47 1.74 17.32 12.31c2.78 6.07 4.08 14.83 1.32 21.15q-2.28 5.22-4.63 10.66a0.59 0.58-61.5 0 1-0.86 0.26c-6.04-4.04-11.25-9.04-17.11-13.23q-2.42-1.75-3.41-5.87c-1.86-7.79-5.47-16.5-10.96-22.17z" fill="#ee1b24"/>
<path d="m144.52 135.43 4.72 0.89q0.21 0.31 0.2 0.71-0.01 0.41-0.22 0.67-5.94 7.4-8.17 13.68-1.7 4.79-3.16 9.82c-0.58 1.97-2.12 3.9-3.73 5.13q-7.65 5.9-16.25 12.96a0.66 0.66 0 0 1-1.03-0.26q-2.59-6.19-4.91-11.74-1.26-2.99-1.24-5.99 0.03-4.25 1.13-8.96 0.96-4.06 3.07-7.56 6.92-11.44 22.06-9.87 3.7 0.39 7.53 0.52z" fill="#ee1b24"/>
<path d="m138.17 176.75q0.13-4.07 0.41-8.04 0.27-3.86 1.51-7.86 1.92-6.19 2.6-8.08 3.03-8.53 9.93-15.36 7.84-0.91 15.61-0.69 3.71 0.11 6.43 0.98 3.08 0.99 6.16 1.87a0.93 0.93 0 0 1 0.67 0.88l0.6 36.11a4.56 4.55 80.7 0 1-3.16 4.41l-17.02 5.45q-0.48 0.16-0.95-0.04l-22.79-9.63z" fill="#fff"/>
<path d="m215.44 139.24q6.23 7.29 7.85 12.49 1.38 4.46 2.8 8.9 1.25 3.95 1.54 7.91 0.28 3.83 0.54 8.08l-22.75 9.76q-0.55 0.24-1.12 0.06l-17.04-5.45a4.5 4.48 9.4 0 1-3.12-4.34l0.58-36.36q0.01-0.58 0.57-0.72c4.18-1.13 8.3-2.86 12.69-2.88q7.06-0.03 13.96 0.46c1.49 0.1 2.57 1.02 3.5 2.09z" fill="#fff"/>
<path d="m255.44 169.87c6.61 12.41 12.82 27.52 13.12 41.35a2.61 2.6-11 0 1-1.69 2.49l-20.64 7.74a4.48 4.47 72.5 0 1-5.91-3.08q-3.53-13.73-6.99-27.14c-1.29-5-1.63-10.31-2.14-15.54l-0.58-6.99q-0.05-0.57 0.4-0.21l17.51 13.7q1.3 1.02 1.94-0.5l4.98-11.82z" fill="#fff"/>
<path d="m135.2 174.95c-0.67 5.3-0.93 10.71-2.21 15.77q-3.56 14.08-7.38 28.63c-0.52 1.98-4.18 2.67-5.82 2.04q-9.95-3.78-20.35-7.66a2.83 2.82 11.1 0 1-1.84-2.73q0.16-5.16 1.54-10.73 3.9-15.77 11.79-30.77l4.96 12.49a1 0.99-29.9 0 0 1.54 0.41l17.84-13.95a0.28 0.28 0 0 1 0.45 0.25l-0.52 6.25z" fill="#fff"/>
<path d="m156.03 200.05c-0.62 2.78-0.69 10.74 1.85 12.6q0.44 0.32 0.24 0.83-2.13 5.42 1.08 10.08 0.35 0.52-0.07 0.98-4.54 4.99-2.01 12.49 0.47 1.4-0.72 0.53l-9.7-7.04a1.17 1.13-74.7 0 1-0.47-0.85q-0.29-4.75-0.85-9.15-2.11-16.58-6.2-40.08a0.36 0.35 6.7 0 1 0.49-0.38l18.55 7.98q0.52 0.23 0.39 0.78-1.36 5.73-2.58 11.23z" fill="#fff"/>
<path d="m208.85 237.47c1.61-4.45 1.54-9.15-1.79-12.94q-0.39-0.44-0.07-0.93 3.1-4.72 1.02-10.15-0.21-0.58 0.31-0.89 1.04-0.63 1.35-1.8c1.03-3.91 1.18-8.31 0.17-12.38q-1.26-5.09-2.33-9.82a0.41 0.41 0 0 1 0.24-0.46l18.8-8a0.43 0.42-6.1 0 1 0.59 0.47q-4.77 24.82-7.23 49.05-0.07 0.71-0.64 1.13l-9.81 7.18q-1.05 0.77-0.61-0.46z" fill="#fff"/>
<ellipse transform="translate(183.12,181.96) rotate(88.3)" rx="1.59" ry="1.26" fill="#fff"/>
<path d="m138.54 193.96q-1.62-3.23-2.45-6.05-0.73-2.45 0.5-6.42 0.29-0.92 0.46 0.03l2.21 12.2q0.47 2.62-0.72 0.24z" fill="#fff"/>
<path d="m229.17 181.34a0.21 0.21 0 0 1 0.25-0.17l0.06 0.02a6.65 1.79-79.5 0 1 0.55 6.86l-0.05 0.26a6.65 1.79-79.5 0 1-2.97 6.21l-0.06-0.01a0.21 0.21 0 0 1-0.17-0.25l2.39-12.92z" fill="#fff"/>
<path d="m160.76 189.45a1.62 1.58-87.8 0 1 1.01-0.96l17.51-5.55q0.65-0.21 1.02 0.37c0.91 1.43 1.95 2.44 1.94 4.27q-0.04 5.81-0.08 10.94-0.01 0.6-0.54 0.87l-21.55 11.19a1.17 1.17 0 0 1-1.7-0.89q-1.32-10.49 2.39-20.24z" fill="#fff"/>
<path d="m206.1 210.58-21.55-11.21a0.81 0.8 14.3 0 1-0.43-0.71q0.02-5.45-0.07-10.78c-0.03-1.91 0.85-3.33 1.99-4.72q0.31-0.38 0.77-0.23 13 3.94 17.81 5.76c1.37 0.53 1.34 2.16 1.63 3.06q2.84 8.78 1.67 17.88a1.25 1.25 0 0 1-1.82 0.95z" fill="#fff"/>
<path d="m263.79 288.79-4.05-0.2q-0.55-0.02-0.55-0.57l0.03-11.03a0.66 0.66 0 0 0-0.98-0.57l-5.66 3.16q-0.83 0.46-0.83 1.41l0.01 6.99a0.74 0.74 0 0 1-0.74 0.74h-11.24a0.68 0.68 0 0 1-0.68-0.69l0.07-11.07a0.56 0.56 0 0 0-0.88-0.47q-3.4 2.35-7.05 3.28-1.86-9.14-4.84-17.69-1.5-4.32-1.84-7.89-0.91-9.63-2.13-19.38c-1.07-8.51 0.75-17.58 1.91-26.16 0.77-5.73 3.91-11.49 6.35-16.77q0.53-1.15 0.84 0.07l7.42 28.97a2.14 2.13-88.8 0 0 1.43 1.5l1.88 0.57q0.74 0.23 0.51 0.97-0.91 2.92-1.87 5.61c-1.1 3.08 1.48 9.52 3 12.66q4.87 10.07 12.13 19.06c6.4 7.95 7.37 17.58 7.76 27.5z" fill="#fff"/>
<path d="m184.83 202.52-1.25 1.03q-0.35 0.3-0.76 0.09-0.78-0.41-1.38-1.1a0.65 0.65 0 0 1 0.12-0.95q1.68-1.19 3.27 0.15 0.47 0.39 0 0.78z" fill="#fff"/>
<path d="m175.4 220.98q-6.98 0.64-13.41 1.37-1.83 0.21-2.22-1.59c-1.19-5.42 0.31-8.14 5.38-10.68q6.14-3.06 13.24-6.78 0.62-0.32 1.14 0.15l2.18 1.94q0.52 0.47 0.52 1.17l-0.06 11.88a1.44 1.44 0 0 1-0.95 1.34q-2.43 0.88-5.82 1.2z" fill="#fff"/>
<path d="m187.68 203.19c5.45 2.75 10.82 5.67 16.31 8.51 3.07 1.59 3.1 6.81 2.31 9.63a1.51 1.5-78.8 0 1-1.61 1.09l-18.44-1.99a2.42 2.41-86.9 0 1-2.16-2.42l0.04-11.75q0-0.57 0.43-0.95l2.25-2.01q0.4-0.35 0.87-0.11z" fill="#fff"/>
<path d="m99.66 215.84 21.07 7.96q0.57 0.21 0.78 0.78c1.15 3.08 2.66 6.05 1.73 9.49-2.48 9.19-8.35 18.37-14.49 25.9-6.08 7.46-7.93 17.14-8.06 26.55a0.94 0.92 80.4 0 1-0.6 0.86c-4.89 1.84-9.53-4.64-11.32-8.64q-1.11-2.49-0.97-5.15 1.68-31.31 10.98-57.35 0.24-0.65 0.88-0.4z" fill="#fff"/>
<path d="m266.09 287.44q-0.57-0.21-0.58-0.82c-0.03-9.34-1.93-18.79-7.81-26.35-6.24-8.02-11.88-16.43-14.77-26.09-1-3.34 0.58-6.51 1.72-9.59q0.21-0.57 0.78-0.79l21.3-8.04a0.45 0.45 0 0 1 0.57 0.27c6.66 18.05 9.67 36.42 11.14 57.04q0.2 2.85-0.93 5.46c-1.7 3.94-6.46 10.73-11.42 8.91z" fill="#fff"/>
<circle cx="183.12" cy="221.99" r="1.02" fill="#fff"/>
<path d="m162.13 241.28c-2.57-2.3-2.86-9.89-2.59-12.99q0.18-1.9 1.57-3.24a1.58 1.51 18 0 1 0.87-0.42l15.88-2.1a3.85 3.85 0 0 1 4.35 3.84l-0.1 13.45a2.78 2.78 0 0 1-2.93 2.76l-16.12-0.91q-0.53-0.03-0.93-0.39z" fill="#fff"/>
<path d="m205.49 225.47c2.77 3.16 0.9 11.71-0.65 15.22a1.64 1.63 10 0 1-1.4 0.97l-15.88 0.92q-3.46 0.2-3.46-3.26l-0.03-13.1a3.71 3.7-86.6 0 1 4.14-3.69q7.75 0.94 15.05 1.91 1.51 0.2 2.23 1.03z" fill="#fff"/>
<path d="m159.69 246.16c-1.62 14.05 1.38 27.33 5.58 40.9q0.61 1.98-0.62 0.32l-20.95-28.39q-0.5-0.69-0.41-1.53l2.69-24.7a0.18 0.18 0 0 1 0.28-0.13l13.51 9.88a1.04 1.03-65 0 1 0.39 1.09q-0.32 1.26-0.47 2.56z" fill="#fff"/>
<path d="m200.7 287.04c4.99-13.11 8.03-29.99 5.26-43.78q-0.09-0.43 0.26-0.68l13.53-9.84a0.34 0.33-21.1 0 1 0.53 0.23l2.64 24.78a1.64 1.61 60.6 0 1-0.31 1.15l-21.11 28.58q-2 2.71-0.8-0.44z" fill="#fff"/>
<ellipse transform="translate(183.11 243.95) rotate(-.3)" rx="1.31" ry=".84" fill="#fff"/>
<path d="m182.2 288.39q-4.67-0.92-9.36 0.68a0.63 0.63 0 0 1-0.83-0.6l-0.03-11.76q0-0.62-0.62-0.62l-7.43 0.02q-1.29-6.88-2.24-14.24-1.14-8.84 0.45-17.19a1.22 1.21-83 0 1 1.26-0.99q5.29 0.28 11.03 0.62c2.52 0.15 4.67 1.16 6.91 2.14a1.23 1.22 11.8 0 1 0.74 1.12l0.12 40.82z" fill="#fff"/>
<path d="m192.25 300.33q-0.59-8.53-8.15-11.52l0.13-41.5q0-0.5 0.44-0.73 3.81-1.99 6.81-2.21 5.34-0.38 11.68-0.71a0.83 0.82 82.7 0 1 0.85 0.67q0.99 4.93 0.96 10.25-0.1 16.27-6.6 32.93-1.65 4.25-2.78 7.51-0.6 1.76-3.34 5.31z" fill="#fff"/>
<path d="m148.3 288.26q-3.6-0.29-7.12 1.43-6.71 3.27-5.82 10.76 0.51 4.24 5.24 7.08l-7.36 6.79q-0.53 0.49-0.55-0.23c-0.51-17.26 3.59-35.82 9.53-52.85a0.33 0.33 0 0 1 0.58-0.09l8.94 12.13q0.33 0.45 0.19 0.98l-3.63 14z" fill="#fff"/>
<path d="m230.87 285.53q-0.21 0.97 0.35 2.37 0.3 0.77-0.52 0.78l-1.95 0.04q-0.78 0.01-0.77 0.79l0.02 5.23q0 0.97 0.96 0.82 1.22-0.18 2.36 0.09 0.65 0.15 0.6 0.81-0.7 8.43 0.11 17.19l-8.14-7.66 0.04-16.66q0-0.51-0.51-0.53l-5.54-0.25-3.67-13.89a1.75 1.74-34.3 0 1 0.28-1.47l8.92-12.06a0.33 0.33 0 0 1 0.59 0.11l6.87 24.29z" fill="#fff"/>
<path d="m101.13 290.35c1.05 2.33 3.4 5.52 3.52 7.99q0.22 4.31 0.05 9.05a1.22 1.2-17.9 0 1-0.48 0.92l-7.53 5.65a1.63 1.61 26.4 0 1-0.97 0.32l-13.17-0.01a2 2 0 0 1-1.86-1.27c-4.09-10.4 0.58-25.52 4.37-35.47q0.5-1.31 1.07-0.02c2.64 5.92 6.59 13.09 13.9 12.22a1.07 1.07 0 0 1 1.1 0.62z" fill="#fff"/>
<path d="m284.61 287.6q-5.93 0.9-9.06 2.95-4.19 2.75-4.38 8.71-0.24 7.6-0.12 15.39l-9.07-6.36q-0.43-0.29-0.44-0.81-0.11-5.12 0.11-10.22 0.05-1.35 0.52-1.11 2.11-0.78 4.77-0.71 0.5 0.01 0.6-0.49 0.54-2.59-0.17-5.26 6.11-0.31 9.75-6.17 1.84-2.95 2.87-5.72 0.68-1.84 1.31 0.02l3.31 9.78z" fill="#fff"/>
<path d="m156.22 289.1-5.86-1 2.71-9.54q0.15-0.52 0.29 0.01l2.86 10.53z" fill="#fff"/>
<path d="m216.8 291.79-0.18 23.55q-0.01 0.51-0.44 0.78-1.35 0.86-3.69 1.08-6.28 0.59-8.67-4.74l8.95-33.88q0.28-1.05 0.56 0l3.47 13.21z" fill="#fff"/>
<path d="m164.29 291.37-0.07 20.21-8.3-31.18q-0.36-1.34 0.44-0.21l7.93 11.18z" fill="#fff"/>
<path d="m204.62 302.54-0.93-13.4 6.34-9.31q0.06-0.09 0.12 0.01 0.06 0.12 0.17 0.21 0.11 0.08 0.07 0.21-2.81 10.4-5.77 22.28z" fill="#fff"/>
<path d="m148.52 294.78q5.29 0.63 9.91 2.68 3.58 13.61 7.22 27.21 2.05 7.68 2.99 13.77c1.41 9.1 2.4 17.93 1.49 27.49q-1.75 18.46-6 36.69a0.43 0.42-60.4 0 1-0.72 0.2c-7.35-7.79-12.02-17.45-14.29-27.64q-3.18-14.3-3.52-25.94-0.27-9.06-0.01-25.71c8.03 0.54 15.99-3.55 14.92-12.69-0.77-6.53-7.25-7.73-12.47-8.65q-0.63-0.11-0.59-1.17l1.07-6.24z" fill="#fff"/>
<path d="m182.27 295.96-0.15 10.37a0.29 0.29 0 0 1-0.39 0.27q-1.59-0.6-3.04-1.75-4.3-3.44-7.21-8.19 5.37-3.63 10.79-0.7z" fill="#fff"/>
<path d="m146.57 295.11-1.35 5.44q-1.69 0.63-2.27-1.17-0.36-1.13 0.14-2.17 0.94-1.97 3.48-2.1z" fill="#fff"/>
<path d="m286.36 295.07 0.88 7.72-8.17 0.39q-0.66 0.03-0.72-0.62-0.27-2.57 0.99-5.24c1.16-2.45 4.6-2.55 7.02-2.25z" fill="#fff"/>
<path d="m288.99 303.27-0.63-6.01 0.26-0.64a0.59 0.59 0 0 1 1.07-0.04q3.22 6.58-0.7 6.69z" fill="#fff"/>
<path d="m196.31 298.47q0.3 6.3 0.25 12.03-0.03 4.4 2.49 10.35-4.1 17.18-5.3 33.9-0.26 3.61 0.06 7.51 1.73 21.31 6.57 41.39a0.48 0.47-13.6 0 1-0.36 0.58l-8.81 1.96a2.13 2.12-7.7 0 1-2.58-1.96l-4.11-80.75 0.12-0.24q0.13-0.25 0.41-0.26l6.27-0.05q0.6 0 0.6-0.6l-0.12-18.78 4.51-5.08z" fill="#fff"/>
<path d="m172.23 301.08q4.33 5.4 9.33 7.57 0.47 0.2 0.45 0.72-1.25 44.62-3.76 89.13-0.17 3.09-0.88 6.21a1.98 1.97 12.5 0 1-2.35 1.49l-8.61-1.89a0.63 0.62-77.7 0 1-0.48-0.75c2.85-12.56 5.37-26.54 6.35-39.75q0.54-7.34-0.51-16.65-1.4-12.44-4.17-24.71 1.94 0.68 3.85 0.52 0.5-0.04 0.5-0.55l0.28-21.34z" fill="#fff"/>
<path d="m143.86 315.98q-3.05 0.46-6.31-0.91a1.36 1.36 0 0 0-1.75 0.66l-1.96 4.07q-0.51 1.06 0.57 1.53 4.18 1.8 9.3 2.01-0.13 9.81-0.25 19.77-0.17 12.61 0.9 19.71c2.25 14.91 7.2 31.06 17.99 41.65q0.24 0.24-0.07 0.38l-10.99 4.6a0.35 0.35 0 0 1-0.49-0.32c-0.09-7.56-4.24-15.98-8.07-22.39q-8.25-13.83-12.81-31.58-0.48-1.87-0.44-3.95 0.4-17.09 3.28-33.37 0.09-0.48 0.42-0.83c3-3.1 6.43-5.58 9.3-8.74q0.44-0.49 1.08-0.49a0.5 0.5 0 0 1 0.5 0.52l-0.2 7.68z" fill="#fff"/>
<path d="m223.98 308.42 8.97 8.45q0.4 0.37 0.5 0.9 3.01 16.37 3.18 33.04 0.04 3.9-1.2 7.9c-2.62 8.5-5.71 17.28-10.18 24.87-4.76 8.06-9.06 16.21-9.97 25.38q-0.07 0.63-0.65 0.38l-10.35-4.37q-0.6-0.25-0.14-0.71c10.31-10.4 15.11-25.72 17.59-40.78q0.97-5.91 0.98-14.9 0.02-13.16-0.29-26.33-0.09-1.12 0.67-0.91a0.53 0.52-81.6 0 0 0.67-0.5l0.22-12.42z" fill="#fff"/>
<path d="m145.73 316.99 0.62-7.99q2.01-0.07 4.32 0.53c1.72 0.45 2.9 2.09 2.45 3.87q-0.7 2.76-3.88 3.09-1.7 0.18-3.51 0.5z" fill="#fff"/>
<path d="m286.75 308.96q-0.38 2.54-1.71 4.71-0.26 0.43-0.77 0.46l-4.83 0.23q-1.1-2.49-1.06-4.59a0.83 0.83 0 0 1 0.83-0.81h7.54z" fill="#fff"/>
<path d="m220.54 322.06c0.54 21.87 0.7 39.98-4.94 58.54q-3.61 11.87-11.79 21.16-0.54 0.61-1.25 1.01-0.38 0.21-0.48-0.21-3.62-15.78-5.64-32.76-1.02-8.52-0.68-14.95c0.59-11.03 2.53-22.96 5.55-32.99 2.22 0.49 4.51 1.36 6.66 1.51q6.38 0.44 12.57-1.31z" fill="#fff"/>
<path d="m159.57 536.72q-0.54 0.06-1.06-0.1-0.55-0.17-0.48-0.75c0.18-1.51 0.16-3.12 0.6-4.56 2.17-7.05 3.35-13.74 3.3-21.28-0.04-8.32-0.44-17.06-0.23-25.37q0.64-25.65-0.04-50.41c-0.14-4.92-1.98-10.38-8.31-9.17q-2.47 0.46-4.48 1.82a0.24 0.24 0 0 1-0.37-0.24l2.02-14.27q0.08-0.58 0.62-0.8l13.05-5.43q0.49-0.21 1.01-0.1l9.57 2.07a0.86 0.86 0 0 1 0.69 0.9q-0.71 10.67-1.33 21.73c-0.16 2.96-0.87 5.8-1.46 8.66q-5.44 26.63-4.01 47.05 0.55 7.88 2.01 19.91 1.19 9.82 3.87 17.85 0.99 2.99 0.98 5.45-0.04 13.62 0.02 27.21 0.01 2.65-2.63 2.66l-23.68 0.09q-0.64 0-0.74-0.62c-0.23-1.49-0.3-3.44 0.82-4.61q5.19-5.39 11.21-11.68c1.38-1.44 0.64-3.71 0.07-5.37q-0.26-0.73-1.02-0.64z" fill="#fff"/>
<path d="m217.05 426.71c-4.94-3.04-10.72-2.71-12.01 4.03q-0.81 4.25-0.85 9.11-0.23 29.74-0.15 61.92 0.02 7.13 0.54 15.61c0.39 6.37 2.99 11.96 3.7 18.39a0.88 0.88 0 0 1-1.02 0.96q-2.01-0.36-1.92 2.06a2.9 2.82-37 0 1-0.18 1.15q-0.6 1.58 0.46 2.68 5.46 5.69 11.38 11.86c1.12 1.17 0.75 2.9 0.79 4.38q0.02 0.8-0.78 0.79l-23.65-0.1q-2.73-0.01-2.71-2.74 0.1-12.2 0.04-26.99-0.01-2.6 0.94-5.33 2.57-7.39 3.95-18.52 1.65-13.38 2.01-20.65 0.88-17.83-2.2-35.82c-1.23-7.16-3.06-14.28-3.47-21.6q-0.53-9.5-1.16-19.04a0.71 0.7 82.6 0 1 0.56-0.74l9.2-1.95q1-0.21 1.95 0.18l12.26 5.11q0.86 0.35 0.99 1.27l1.94 13.57a0.41 0.4-78.7 0 1-0.61 0.41z" fill="#fff"/>
<path d="m144.66 460.83c-0.53-7.17-1.13-30.36 7.47-33.39 4.48-1.57 7.4 3.36 7.53 7.18 0.77 22.33-0.09 45.02 0.25 67.58 0.09 6.09-0.3 11.97-0.81 18.04a0.23 0.22 24.4 0 1-0.38 0.14q-0.2-0.19-0.26-0.43c-3.35-13.8-7.25-28.08-10.78-42.4q-2.55-10.35-3.02-16.72z" fill="#fff"/>
<path d="m214.81 427.83c3.3 1.81 4.79 6.71 5.4 10.18q3.27 18.71-1.37 37.19-5.35 21.28-11.01 43.61-0.8 3.18-1.05-0.1-0.89-11.53-0.88-19.16 0.05-32.35 0.17-61.39 0.02-4.33 1.2-7.29c1.2-2.99 4.55-4.69 7.54-3.04z" fill="#fff"/>
<path d="m175.45 441.86q3.59 17.18 2.64 29.14-0.68 8.48-2.37 13.45-1.75 5.15-3.53 10.03-0.57 1.54-0.82-0.08-0.57-3.55-0.77-7.15-1.3-23.22 4.13-46.03 0.06-0.26 0.27-0.1 0.35 0.28 0.45 0.74z" fill="#fff"/>
<path d="m191.73 442.25q6.11 26.79 3.22 52.25-0.03 0.29-0.25 0.51a0.27 0.27 0 0 1-0.45-0.09c-1.96-5.34-4.37-10.93-5.24-16.49q-2.63-16.76 1.67-36.18 0.52-2.32 1.05 0z" fill="#fff"/>
</svg>